<svg width="32" height="32" viewBox="0 0 32 32" fill="none" xmlns="http://www.w3.org/2000/svg">
<path d="M27.8133 11.16L18.5733 3.77333C17.1467 2.62666 14.84 2.62666 13.4267 3.75999L4.18667 11.16C3.14667 11.9867 2.48001 13.7333 2.70667 15.04L4.48001 25.6533C4.80001 27.5467 6.61334 29.08 8.53334 29.08H23.4667C25.3733 29.08 27.2 27.5333 27.52 25.6533L29.2933 15.04C29.5067 13.7333 28.84 11.9867 27.8133 11.16ZM16 20.6667C14.16 20.6667 12.6667 19.1733 12.6667 17.3333C12.6667 15.4933 14.16 14 16 14C17.84 14 19.3333 15.4933 19.3333 17.3333C19.3333 19.1733 17.84 20.6667 16 20.6667Z" fill="white"/>
</svg>
